<!-- Generated by IcoMoon.io -->
<svg version="1.1" xmlns="http://www.w3.org/2000/svg" width="1024" height="1024" viewBox="0 0 1024 1024">
<title></title>
<g id="icomoon-ignore">
</g>
<path stroke-linejoin="miter" stroke-linecap="butt" stroke-miterlimit="4" stroke-width="12.4878" stroke="#000" fill="#000" d="M768.409 867.911l-131.017-175.638 9.509-141.312c0.455-3.073 0.683-6.176 0.683-9.283v-216.033c-0.064-27.407-7.743-54.235-22.146-77.398-14.395-23.15-34.946-41.677-59.255-53.447 4.994-19.078 5.618-39.076 1.811-58.435s-11.939-37.579-23.767-53.218c-11.82-15.647-27.029-28.312-44.434-37.014s-36.544-13.209-55.931-13.167c-19.388 0.039-38.508 4.624-55.878 13.397s-32.524 21.501-44.288 37.197c-11.772 15.696-19.825 33.938-23.555 53.327s-3.032 39.364 2.042 58.427c-24.047 11.907-44.333 30.442-58.548 53.511s-21.791 49.723-21.866 76.962v216.183c0 16.144 6.297 31.628 17.506 43.043s26.411 17.829 42.263 17.829c15.852 0 31.054-6.414 42.263-17.829s17.506-26.899 17.506-43.043v-110.151l36.807 112.607-92.436 92.547c-9.88 9.895-16.421 22.73-18.679 36.654s-0.117 28.221 6.114 40.825l118.256 240.873c8.008 15.484 21.64 27.143 38.003 32.497s34.114 3.973 49.478-3.852c15.353-7.824 27.108-21.472 32.714-38 5.593-16.538 4.626-34.652-2.73-50.462l-96.821-196.903 72.43-67.796 0.592 79.538c-0.771 15.744 3.94 31.259 13.305 43.81l145.601 194.906c5.185 7.085 11.693 13.052 19.156 17.56 7.449 4.506 15.724 7.449 24.315 8.694s17.329 0.72 25.729-1.509c8.394-2.231 16.269-6.143 23.172-11.482 6.906-5.351 12.698-12.042 17.048-19.684 4.348-7.644 7.165-16.093 8.299-24.853 1.122-8.76 0.53-17.66-1.744-26.187-2.275-8.525-6.186-16.505-11.509-23.482v-0.202zM443.995 58.231c20.103 0 39.758 6.072 56.475 17.447s29.743 27.544 37.438 46.461c7.7 18.917 9.708 39.735 5.785 59.814s-13.604 38.537-27.82 53.007c-14.227 14.478-32.328 24.346-52.047 28.332s-40.156 1.952-58.731-5.891c-18.574-7.835-34.45-21.101-45.619-38.129s-17.131-37.029-17.131-57.507c-0.006-13.599 2.618-27.067 7.724-39.633s12.592-23.987 22.032-33.603c9.44-9.618 20.648-17.249 32.984-22.454s25.558-7.885 38.911-7.885v0.050zM740.817 941.432c-8.63 6.682-19.51 9.6-30.252 8.123s-20.47-7.232-27.054-16.002v0l-145.601-194.909c-5.984-7.988-8.946-17.913-8.377-27.95l-0.789-108.583c-0.015-2.439-0.727-4.826-2.046-6.862-1.322-2.034-3.194-3.635-5.39-4.608-2.198-0.973-4.626-1.275-6.986-0.874-2.371 0.405-4.559 1.501-6.323 3.154l-99.878 93.387c-2.019 1.855-3.389 4.347-3.87 7.057-0.491 2.73-0.083 5.533 1.161 7.988l101.011 205.443c4.854 9.883 5.664 21.325 2.228 31.807-3.43 10.485-10.802 19.151-20.514 24.095s-20.937 5.761-31.232 2.27c-10.294-3.491-18.805-11.005-23.66-20.888l-118.256-240.873c-3.879-7.859-5.206-16.768-3.789-25.445 1.417-8.679 5.504-16.682 11.672-22.829l97.906-98.006c1.641-1.641 2.813-3.748 3.353-6.026s0.437-4.69-0.298-6.91l-63.217-193.654v-0.251l-0.344-0.853v-0.455c-0.096-0.204-0.204-0.413-0.345-0.602-0.077-0.197-0.176-0.381-0.295-0.553l-0.296-0.455-0.455-0.651-0.295-0.351-0.493-0.553-0.296-0.302-0.542-0.55-0.345-0.302-1.035-0.702-0.493-0.3-0.542-0.302h-0.493l-0.591-0.302h-0.493c-0.197 0.022-0.395 0.022-0.591 0h-8.525l-0.542 0.253-0.542 0.3-0.591 0.351-0.455 0.302-0.542 0.4-0.395 0.302-0.493 0.502-0.395 0.351-0.455 0.502-0.345 0.403c-0.103 0.174-0.218 0.341-0.345 0.502l-0.345 0.502-0.296 0.455-0.345 0.653v0.4l-0.295 0.702v0.455c0.024 0.233 0.024 0.469 0 0.702-0.023 0.167-0.023 0.335 0 0.502 0.065 0.204 0.065 0.44 0 0.653 0 0 0 0.455 0 0.651v189.438c-0.34 9.237-4.182 17.982-10.72 24.394-6.538 6.414-15.261 9.996-24.346 9.996s-17.801-3.581-24.346-9.996c-6.538-6.412-10.38-15.157-10.72-24.394v-216.483c0.105-22.099 6.179-43.735 17.556-62.558s27.617-34.084 46.943-44.129c10.44 21.56 26.606 39.708 46.662 52.381 20.057 12.675 43.196 19.365 66.804 19.323 23.604-0.049 46.723-6.834 66.74-19.589s36.104-30.966 46.46-52.567c19.594 9.916 36.089 25.19 47.647 44.111 11.556 18.92 17.714 40.741 17.788 63.016v216.183c-0.024 1.68-0.164 3.356-0.395 5.019v0.302c-1.452 8.779-6.068 16.692-12.949 22.179s-15.526 8.179-24.246 7.509c-8.718-0.658-16.881-4.611-22.888-11.079-6.009-6.468-9.425-14.988-9.59-23.89v-187.783c0.204-1.724 0.059-3.474-0.433-5.139-0.489-1.663-1.314-3.209-2.418-4.53-1.102-1.327-2.467-2.403-3.999-3.166-1.521-0.761-3.209-1.194-4.911-1.268-1.701-0.071-3.405 0.216-4.994 0.845s-3.036 1.581-4.247 2.813c-1.209 1.233-2.157 2.692-2.79 4.309s-0.919 3.346-0.855 5.082c-0.049 0.351-0.049 0.705 0 1.042v187.731c0.11 10.792 3.018 21.362 8.456 30.622 5.426 9.271 13.167 16.91 22.435 22.143s19.724 7.868 30.334 7.644c10.595-0.226 20.942-3.309 29.987-8.932l-6.862 102.071c-0.241 3.071 0.636 6.124 2.464 8.581l133.925 179.148c3.138 4.454 5.405 9.497 6.637 14.837 1.233 5.343 1.42 10.88 0.55 16.297-0.874 5.413-2.79 10.602-5.618 15.267-2.85 4.662-6.551 8.718-10.922 11.912h-0.144z"></path>
</svg>
